<?xml version="1.0" standalone="no"?>
<!DOCTYPE svg PUBLIC "-//W3C//DTD SVG 20010904//EN"
 "http://www.w3.org/TR/2001/REC-SVG-20010904/DTD/svg10.dtd">
<svg version="1.0" xmlns="http://www.w3.org/2000/svg"
 width="200.000000pt" height="200.000000pt" viewBox="0 0 200.000000 200.000000"
 preserveAspectRatio="xMidYMid meet">
<metadata>
Created by potrace 1.14, written by Peter Selinger 2001-2017
</metadata>
<g transform="translate(0.000000,200.000000) scale(0.100000,-0.100000)"
fill="#000000" stroke="none">
<path d="M0 1710 l0 -290 30 0 c22 0 28 -4 24 -15 -4 -8 -17 -15 -30 -15 l-24
0 0 -695 0 -695 90 0 c81 0 89 2 83 17 -4 10 -11 21 -16 25 -6 3 -10 32 -11
65 0 70 24 126 65 150 25 15 28 22 23 49 -8 41 14 143 36 169 9 11 27 39 40
62 13 23 26 40 30 38 3 -2 12 0 20 6 13 7 13 9 -1 9 -13 0 -8 17 25 84 23 46
46 90 52 97 6 8 19 36 29 62 10 26 22 50 28 54 6 3 7 1 3 -5 -5 -8 3 -10 26
-5 37 7 49 13 26 13 -9 0 -20 13 -26 28 -9 25 -5 37 29 90 21 34 39 68 39 75
0 15 147 117 168 117 7 0 12 -4 12 -10 0 -5 -7 -10 -16 -10 -8 0 -12 -5 -9
-10 4 -6 11 -7 17 -4 6 4 14 0 19 -7 7 -11 11 -11 21 -1 10 10 10 17 -1 34
-20 33 7 43 39 14 14 -12 41 -32 61 -43 42 -24 105 -40 95 -25 -6 10 23 26 32
17 3 -3 1 -5 -5 -5 -6 0 -10 -7 -9 -16 1 -12 -9 -16 -40 -18 -51 -3 -77 -26
-68 -61 3 -14 13 -25 21 -25 25 0 69 28 104 67 37 41 54 77 64 136 3 20 11 37
18 37 8 0 7 4 -3 10 -8 5 -11 13 -6 17 4 4 13 1 19 -7 7 -10 25 -15 45 -14 33
2 50 -14 37 -35 -4 -7 -14 -5 -30 5 -27 18 -47 11 -38 -12 3 -9 0 -20 -7 -24
-20 -12 -2 -29 23 -21 65 22 86 33 80 47 -9 23 24 27 54 7 15 -10 51 -29 78
-42 28 -12 58 -33 68 -47 19 -26 76 -235 75 -275 -1 -33 -19 -69 -35 -69 -18
0 -16 -7 8 -33 20 -21 21 -21 19 -2 -4 36 0 56 9 50 5 -3 9 -24 9 -48 -1 -23
2 -62 7 -87 7 -43 7 -44 -11 -28 -12 10 -29 14 -47 11 -21 -4 -26 -2 -22 10 5
11 -2 14 -35 13 -34 -1 -38 -2 -20 -10 17 -8 20 -15 15 -38 -4 -17 -2 -28 4
-28 6 0 11 5 11 11 0 6 7 9 15 6 8 -4 17 -2 19 2 11 17 54 9 59 -10 3 -12 0
-19 -10 -19 -8 0 -11 4 -8 10 3 6 2 10 -4 10 -5 0 -13 -4 -16 -10 -3 -5 -15
-10 -26 -10 -10 0 -19 -4 -19 -8 0 -11 60 -45 67 -38 4 3 12 1 19 -5 9 -7 14
-5 19 10 3 12 3 25 0 31 -3 5 1 10 9 10 19 0 21 -21 4 -38 -9 -9 -8 -12 8 -12
13 0 26 -12 37 -35 9 -20 24 -38 32 -41 8 -4 15 -17 15 -30 0 -15 6 -24 15
-24 9 0 15 -10 16 -22 0 -13 2 -31 4 -40 2 -10 -1 -18 -6 -18 -8 0 -13 15 -10
33 0 4 -3 7 -8 7 -5 0 -12 13 -16 29 -3 16 -13 36 -22 43 -14 12 -16 10 -9
-15 5 -23 3 -27 -14 -27 -12 0 -19 4 -16 9 14 22 -61 46 -79 25 -5 -7 -25 -15
-44 -19 -26 -6 -32 -4 -29 6 3 8 13 16 24 17 35 7 37 20 10 52 -14 17 -26 35
-26 40 0 5 -12 5 -27 1 -16 -4 -33 -6 -39 -4 -6 2 -14 -8 -16 -22 -4 -18 -2
-25 7 -21 7 2 18 -1 24 -7 18 -18 13 -27 -11 -18 -26 9 -46 5 -70 -17 -27 -23
-22 -32 18 -32 44 0 83 -18 63 -30 -10 -7 -10 -12 0 -23 8 -11 -6 -8 -46 9
-68 27 -91 30 -99 9 -4 -8 -12 -15 -19 -15 -7 0 -15 -4 -17 -10 -1 -5 -24 -11
-50 -12 -57 -4 -62 -13 -11 -21 40 -7 93 -51 93 -78 0 -10 8 -23 18 -28 12 -7
7 -9 -23 -4 l-40 6 24 -27 24 -26 -25 0 c-14 0 -29 -7 -32 -16 -10 -27 -7 -94
5 -94 7 0 10 -14 7 -35 l-4 -35 408 0 408 0 0 1000 0 1000 -1000 0 -1000 0 0
-290z m1730 250 c0 -5 -2 -10 -4 -10 -3 0 -8 5 -11 10 -3 6 -1 10 4 10 6 0 11
-4 11 -10z m132 -190 c5 0 8 7 4 15 -3 8 -1 15 3 15 5 0 11 -20 12 -43 4 -43
3 -44 -21 -37 -15 4 -24 13 -24 23 6 81 7 84 11 55 2 -16 9 -28 15 -28z m-47
0 c0 -13 -5 -25 -12 -27 -7 -3 -11 7 -11 27 1 35 23 36 23 0z m-776 -9 c19 -9
36 -22 39 -29 2 -7 -10 -4 -32 9 -25 15 -36 17 -36 8 0 -7 -6 -5 -14 7 -12 15
-17 16 -27 7 -7 -7 -13 -22 -14 -33 -1 -15 3 -19 16 -15 9 3 20 1 24 -5 3 -5
1 -10 -5 -10 -7 0 -10 -7 -6 -15 8 -21 -20 -19 -34 3 -11 16 -11 16 -6 -2 5
-15 2 -17 -14 -13 -17 4 -20 0 -20 -23 0 -33 -17 -48 -33 -30 -9 10 -9 11 1 6
6 -4 12 -2 12 3 0 6 -5 11 -11 11 -6 0 -9 7 -5 15 3 10 -1 15 -12 15 -15 1
-15 2 2 15 17 13 17 15 3 21 -10 3 -24 4 -31 1 -11 -4 -13 -1 -9 10 5 13 3 13
-14 5 -20 -11 -33 -7 -33 10 0 4 8 8 17 8 9 0 13 3 9 7 -12 12 126 42 164 36
19 -3 50 -13 69 -22z m567 -48 c-11 -29 -17 -6 -9 33 7 36 8 37 11 11 2 -16 1
-36 -2 -44z m109 -58 c14 -31 14 -48 4 -116 -6 -43 -14 -79 -18 -79 -13 0 -71
76 -72 95 0 11 -2 29 -4 40 -8 40 7 105 24 106 13 1 13 2 -1 6 -12 3 -18 14
-18 31 l0 26 35 -36 c19 -19 42 -52 50 -73z m-612 51 c4 -10 1 -13 -8 -9 -8 3
-12 9 -9 14 7 12 11 11 17 -5z m-343 -34 c0 -9 10 -22 23 -27 12 -6 21 -16 20
-23 -2 -7 2 -12 7 -12 6 0 10 -7 10 -15 0 -13 -4 -14 -20 -5 -16 9 -20 8 -21
-7 -1 -10 -5 -2 -9 17 -6 31 -8 32 -9 8 0 -15 -6 -30 -11 -33 -7 -4 -9 6 -8
26 1 19 -3 34 -10 37 -15 5 -15 25 0 40 17 17 28 15 28 -6z m1116 0 c-3 -3 -1
-11 5 -18 6 -7 8 -18 4 -24 -11 -18 -25 0 -25 31 0 19 4 28 11 24 6 -4 8 -10
5 -13z m-266 -39 c0 -44 -5 -41 -14 10 -5 27 -4 37 3 32 6 -3 11 -22 11 -42z
m200 -36 c0 -8 -7 -14 -15 -14 -8 0 -15 6 -15 14 0 7 7 13 15 13 8 0 15 -6 15
-13z m-903 -23 c-3 -3 -12 -4 -19 -1 -8 3 -5 6 6 6 11 1 17 -2 13 -5z m-21
-45 c18 -14 84 -21 97 -11 8 7 23 6 45 -3 43 -19 41 -31 -6 -27 -27 3 -44 -1
-55 -13 -23 -23 -22 -62 3 -70 25 -8 90 4 90 17 0 5 5 6 10 3 18 -11 11 -59
-15 -100 -13 -22 -25 -34 -25 -26 0 8 -7 22 -16 32 -12 14 -22 15 -47 8 -17
-5 -40 -6 -50 -3 -14 4 -18 2 -15 -7 3 -8 22 -15 42 -17 33 -3 37 -6 33 -24
-5 -16 -2 -19 14 -15 12 3 19 1 16 -6 -5 -15 -26 -25 -71 -32 -29 -5 -36 -9
-27 -18 17 -17 13 -27 -8 -27 -19 0 -40 28 -109 140 -14 23 -22 29 -22 18 0
-31 -30 -19 -46 17 -16 40 -19 101 -3 110 14 10 16 6 33 -56 l15 -54 0 47 c1
26 5 49 10 52 5 4 12 24 16 45 6 39 7 39 43 34 20 -3 42 -10 48 -14z m944 4
c-1 -18 -18 -35 -24 -24 -4 6 -4 16 -1 21 7 12 25 13 25 3z m-699 -165 c-6
-16 -15 -28 -21 -28 -6 0 -4 12 5 30 18 34 21 63 4 40 -9 -12 -10 -12 -5 3 3
10 6 24 7 30 1 7 5 -1 11 -18 6 -20 6 -39 -1 -57z m-131 -143 c0 -2 -10 -9
-22 -15 -22 -11 -22 -10 -4 4 21 17 26 19 26 11z m375 -695 c3 -5 1 -10 -4
-10 -6 0 -11 5 -11 10 0 6 2 10 4 10 3 0 8 -4 11 -10z m-25 -60 c0 -5 -5 -10
-11 -10 -5 0 -7 5 -4 10 3 6 8 10 11 10 2 0 4 -4 4 -10z m37 -16 c-3 -3 -12
-4 -19 -1 -8 3 -5 6 6 6 11 1 17 -2 13 -5z m123 -34 c-20 -13 -43 -13 -35 0 3
6 16 10 28 10 18 0 19 -2 7 -10z m56 -31 c3 -6 17 -8 30 -5 17 5 24 2 24 -8 0
-9 20 -27 45 -42 l46 -26 -22 -37 c-12 -20 -25 -52 -29 -71 l-6 -35 -17 35
c-26 53 -63 113 -82 132 -9 9 -18 24 -20 35 -1 10 -8 17 -15 15 -6 -1 -9 2 -5
8 8 13 42 13 51 -1z m-199 -181 c-3 -8 -6 -5 -6 6 -1 11 2 17 5 13 3 -3 4 -12
1 -19z m10 -40 c-3 -8 -6 -5 -6 6 -1 11 2 17 5 13 3 -3 4 -12 1 -19z m-1287
-149 c0 -4 -7 -6 -15 -3 -8 4 -15 10 -15 15 0 4 7 6 15 3 8 -4 15 -10 15 -15z"/>
<path d="M1852 1745 c-11 -12 -10 -15 3 -15 8 0 15 7 15 15 0 18 -2 18 -18 0z"/>
<path d="M854 1480 c-11 -4 -26 -15 -33 -24 -12 -14 -11 -16 8 -16 11 0 21 -6
21 -14 0 -9 9 -13 26 -11 34 3 47 18 40 43 -8 23 -33 32 -62 22z"/>
<path d="M843 1319 c-17 -20 -3 -38 22 -28 11 4 15 8 8 8 -6 1 -13 8 -15 18
-3 14 -5 14 -15 2z"/>
<path d="M1246 1203 c-6 -14 -5 -15 5 -6 7 7 10 15 7 18 -3 3 -9 -2 -12 -12z"/>
<path d="M1201 1149 c-12 -17 -20 -37 -17 -45 3 -9 0 -27 -8 -42 -17 -33 -32
-104 -18 -83 5 7 15 11 20 7 6 -4 16 2 21 13 17 30 13 36 -9 16 -26 -23 -26
-8 0 25 11 14 20 30 20 36 0 6 7 17 15 24 21 18 19 29 -5 23 -24 -6 -26 4 -3
29 9 10 14 20 11 23 -2 3 -15 -9 -27 -26z"/>
<path d="M1106 1145 c-9 -14 -23 -36 -32 -50 -9 -14 -12 -25 -7 -25 5 0 15 11
21 25 6 14 18 25 27 25 9 0 15 9 15 25 0 14 -2 25 -4 25 -2 0 -11 -11 -20 -25z"/>
<path d="M1285 1160 c-3 -6 1 -7 9 -4 18 7 21 14 7 14 -6 0 -13 -4 -16 -10z"/>
<path d="M1051 1046 c-6 -8 -24 -19 -39 -25 -15 -6 -33 -20 -39 -29 -10 -16
-7 -18 21 -16 17 2 23 1 13 -2 -13 -4 -16 -12 -12 -27 4 -15 4 -18 -3 -9 -8
12 -12 12 -23 -1 -7 -7 -21 -12 -31 -9 -10 2 -18 -1 -18 -7 0 -6 6 -11 13 -11
6 -1 -1 -12 -18 -25 -19 -16 -24 -25 -15 -25 13 0 13 -1 0 -11 -12 -8 -9 -9
13 -5 21 5 27 3 27 -10 0 -16 2 -15 20 1 19 17 20 17 20 1 0 -10 -9 -20 -20
-23 -30 -8 -24 -23 10 -23 16 0 33 -7 38 -16 7 -13 11 -14 17 -3 5 7 4 14 -3
17 -8 2 -7 8 4 19 17 17 15 44 -4 51 -7 2 -10 -2 -6 -12 3 -9 1 -16 -6 -16 -6
0 -8 5 -5 10 3 6 1 10 -5 10 -6 0 -2 12 9 26 15 19 18 31 11 39 -6 8 -5 18 5
31 8 10 15 14 15 7 0 -6 -5 -15 -10 -18 -16 -10 -2 -24 19 -18 20 5 41 42 41
73 0 27 30 25 38 -2 5 -21 6 -21 13 -2 12 31 10 54 -6 54 -8 0 -15 -4 -15 -10
0 -5 -7 -10 -15 -10 -8 0 -15 5 -15 11 0 8 -5 8 -15 -1 -8 -7 -15 -18 -15 -26
0 -7 -4 -15 -9 -19 -10 -5 1 44 14 65 9 15 -1 12 -14 -4z"/>
<path d="M715 970 c3 -25 11 -49 17 -55 7 -7 8 1 3 25 -13 60 -26 80 -20 30z"/>
<path d="M1420 1001 c0 -6 4 -13 10 -16 6 -3 7 1 4 9 -7 18 -14 21 -14 7z"/>
<path d="M566 981 c-3 -5 1 -11 9 -15 8 -3 15 -1 15 4 0 13 -18 22 -24 11z"/>
<path d="M615 980 c-3 -5 -1 -10 4 -10 6 0 11 5 11 10 0 6 -2 10 -4 10 -3 0
-8 -4 -11 -10z"/>
<path d="M1128 951 c8 -5 15 -27 15 -50 2 -36 -1 -41 -19 -41 -26 0 -37 -30
-17 -49 12 -11 18 -9 36 10 40 42 27 139 -18 139 -5 0 -4 -4 3 -9z"/>
<path d="M1381 943 c-1 -12 -9 -24 -18 -26 -16 -4 -16 -5 -1 -6 9 0 18 -8 20
-16 2 -10 7 -12 18 -5 12 8 12 13 -2 42 -14 27 -17 29 -17 11z"/>
<path d="M1460 930 c0 -19 3 -21 12 -12 9 9 9 15 0 24 -9 9 -12 7 -12 -12z"/>
<path d="M600 925 c7 -9 15 -13 17 -11 7 7 -7 26 -19 26 -6 0 -6 -6 2 -15z"/>
<path d="M687 913 c-4 -3 -7 -11 -7 -17 0 -6 5 -5 12 2 6 6 9 14 7 17 -3 3 -9
2 -12 -2z"/>
<path d="M1035 900 c-7 -11 2 -30 14 -30 5 0 11 9 14 20 5 21 -16 29 -28 10z"/>
<path d="M697 873 c-3 -5 -4 -20 -2 -35 3 -25 1 -27 -37 -25 -25 2 -42 -2 -45
-10 -3 -7 -9 -10 -15 -7 -5 3 -4 -3 4 -15 11 -19 28 -26 51 -22 11 2 4 -20
-12 -40 -10 -12 -23 -16 -37 -13 -12 3 -25 1 -28 -5 -4 -7 1 -11 13 -11 12 0
21 -4 21 -10 0 -5 0 -13 0 -17 0 -5 -8 -8 -17 -8 -20 0 -58 -33 -49 -42 3 -4
6 -3 6 1 0 4 7 1 15 -8 21 -20 3 -50 -42 -71 -42 -20 -42 -36 0 -28 l32 6 -24
-20 c-17 -14 -21 -22 -13 -27 7 -4 15 0 18 8 3 9 11 16 17 16 7 0 7 -4 -1 -12
-23 -23 -13 -38 23 -38 19 0 35 4 35 8 0 15 57 41 78 35 29 -7 28 -31 -2 -43
-14 -5 -30 -18 -36 -30 -6 -11 -17 -20 -25 -20 -12 0 -14 -9 -9 -40 6 -39 6
-40 -25 -46 -17 -4 -34 -11 -37 -15 -9 -15 -24 -10 -24 7 0 11 -8 14 -32 12
-29 -3 -54 -28 -28 -28 6 0 8 4 5 10 -3 6 2 10 11 10 16 0 16 -1 0 -19 -16
-18 -15 -19 19 -25 35 -7 45 -19 25 -31 -6 -4 -17 -1 -25 5 -12 10 -15 10 -15
1 0 -8 -8 -10 -22 -5 -20 6 -21 5 -9 -10 7 -9 21 -16 31 -16 11 0 25 -15 35
-38 10 -20 35 -60 56 -89 22 -29 39 -57 39 -63 0 -7 79 -10 235 -10 150 0 235
4 235 10 0 10 -19 31 -58 62 -13 10 -22 30 -22 45 -1 27 -1 27 -15 9 -15 -19
-15 -19 -16 5 -3 42 2 90 15 140 l13 47 -25 -9 c-13 -5 -49 -10 -80 -10 -31
-1 -75 -5 -96 -9 -30 -7 -45 -5 -65 9 -14 9 -35 22 -46 27 -32 17 -30 63 5
103 23 27 40 35 81 42 28 5 60 15 69 24 10 9 24 15 32 14 17 -4 88 23 88 33 0
11 -18 10 -25 -2 -4 -6 -10 -8 -15 -5 -5 3 -19 1 -31 -6 -17 -9 -23 -8 -30 2
-9 15 -2 32 11 24 4 -3 10 2 14 10 3 10 -1 15 -13 15 -11 0 -21 3 -24 8 -2 4
-2 1 -1 -5 2 -7 -4 -13 -12 -13 -8 0 -12 -5 -9 -10 14 -22 -37 -2 -52 21 -9
13 -10 19 -3 12 22 -21 43 -17 31 6 -8 15 -7 20 8 24 11 2 23 1 28 -4 4 -4 14
-5 21 0 10 6 9 11 -4 22 -12 9 -15 10 -10 2 4 -7 3 -13 -3 -13 -6 0 -15 9 -21
20 -6 11 -15 20 -20 20 -14 0 -12 -27 3 -33 6 -3 -2 -6 -19 -6 -33 -1 -47 10
-58 47 -6 18 -3 22 13 22 22 0 29 24 11 35 -6 4 -8 11 -5 16 4 5 3 14 -1 20
-5 8 -9 8 -14 -1 -4 -7 -13 -9 -19 -6 -15 10 -14 46 2 46 8 0 9 2 1 8 -6 4
-14 17 -18 29 -6 18 -4 22 8 17 9 -3 16 -1 16 5 0 12 -26 15 -33 4z m-114
-348 c-3 -9 -8 -14 -10 -11 -3 3 -2 9 2 15 9 16 15 13 8 -4z"/>
<path d="M743 817 c1 -15 5 -27 10 -27 10 0 9 22 -2 39 -7 10 -9 7 -8 -12z"/>
<path d="M1455 830 c3 -5 8 -10 11 -10 2 0 4 5 4 10 0 6 -5 10 -11 10 -5 0 -7
-4 -4 -10z"/>
<path d="M1430 811 c0 -5 5 -13 10 -16 6 -3 10 -2 10 4 0 5 -4 13 -10 16 -5 3
-10 2 -10 -4z"/>
<path d="M910 780 c0 -5 -7 -10 -15 -10 -9 0 -14 -8 -12 -22 1 -18 -3 -23 -19
-22 -15 0 -20 -4 -17 -13 3 -8 12 -12 19 -9 8 3 11 0 7 -9 -3 -8 -9 -12 -14
-9 -5 3 -9 -1 -9 -9 0 -8 7 -17 15 -21 17 -6 65 9 65 21 0 5 10 13 22 18 31
13 36 65 7 65 -11 0 -22 7 -25 15 -7 17 -24 20 -24 5z m28 -59 c-9 -15 -16
-17 -25 -9 -16 13 -7 28 18 28 16 0 18 -3 7 -19z m-25 -38 c-7 -2 -19 -2 -25
0 -7 3 -2 5 12 5 14 0 19 -2 13 -5z"/>
<path d="M575 740 c3 -5 13 -10 21 -10 8 0 12 5 9 10 -3 6 -13 10 -21 10 -8 0
-12 -4 -9 -10z"/>
<path d="M1052 738 c-7 -7 -12 -18 -12 -25 0 -20 34 -15 47 6 10 16 9 20 -3
25 -20 8 -18 8 -32 -6z"/>
<path d="M1445 740 c-3 -5 -1 -10 4 -10 6 0 11 5 11 10 0 6 -2 10 -4 10 -3 0
-8 -4 -11 -10z"/>
<path d="M550 726 c0 -9 5 -16 10 -16 6 0 10 4 10 9 0 6 -4 13 -10 16 -5 3
-10 -1 -10 -9z"/>
<path d="M954 659 c-7 -15 -19 -24 -34 -24 -13 0 -25 -5 -27 -12 -3 -7 8 -10
33 -8 47 5 60 18 48 46 l-10 21 -10 -23z"/>
<path d="M1310 661 c0 -6 4 -13 10 -16 6 -3 7 1 4 9 -7 18 -14 21 -14 7z"/>
<path d="M1000 626 c0 -2 7 -6 15 -10 8 -3 15 -1 15 4 0 6 -7 10 -15 10 -8 0
-15 -2 -15 -4z"/>
<path d="M1068 623 c-10 -2 -18 -9 -18 -14 0 -14 16 -11 30 6 7 8 11 14 9 14
-2 -1 -12 -3 -21 -6z"/>
<path d="M1259 598 c0 -2 -2 -13 -3 -25 -2 -18 2 -23 20 -23 21 0 23 2 12 25
-9 21 -25 33 -29 23z"/>
<path d="M940 571 c0 -15 49 -22 71 -10 11 6 18 13 15 16 -3 3 -13 0 -21 -7
-12 -10 -19 -10 -27 -2 -14 14 -38 16 -38 3z"/>
<path d="M1437 559 c5 -20 18 -25 27 -11 2 4 -4 13 -14 19 -15 10 -17 9 -13
-8z"/>
<path d="M442 471 c-10 -6 -7 -10 13 -15 32 -8 46 1 25 14 -18 12 -22 12 -38
1z"/>
<path d="M1568 473 c7 -3 16 -2 19 1 4 3 -2 6 -13 5 -11 0 -14 -3 -6 -6z"/>
<path d="M435 430 c4 -6 11 -8 16 -5 14 9 11 15 -7 15 -8 0 -12 -5 -9 -10z"/>
<path d="M1115 421 c-3 -5 -1 -12 5 -16 5 -3 10 1 10 9 0 18 -6 21 -15 7z"/>
<path d="M928 383 c7 -3 16 -2 19 1 4 3 -2 6 -13 5 -11 0 -14 -3 -6 -6z"/>
<path d="M1030 369 c7 -11 14 -19 16 -16 7 7 -7 37 -17 37 -6 0 -5 -9 1 -21z"/>
<path d="M305 110 c3 -5 8 -10 11 -10 2 0 4 5 4 10 0 6 -5 10 -11 10 -5 0 -7
-4 -4 -10z"/>
<path d="M258 83 c-24 -6 -23 -18 4 -35 l22 -15 -22 -5 c-12 -4 -20 -3 -17 2
3 4 -1 13 -9 19 -11 9 -15 7 -19 -10 -4 -14 -10 -18 -19 -13 -10 6 -10 4 1 -9
11 -14 31 -17 106 -17 88 0 93 1 88 20 -3 11 -10 20 -15 20 -5 0 -6 5 -3 10 4
6 2 9 -4 8 -5 -2 -17 6 -25 17 -13 16 -15 17 -10 3 6 -16 3 -17 -27 -5 -19 8
-42 12 -51 10z"/>
<path d="M1110 10 c-13 -8 -12 -10 3 -10 9 0 17 5 17 10 0 12 -1 12 -20 0z"/>
</g>
</svg>
